<?xml version="1.0" encoding="UTF-8"?>
<!DOCTYPE svg PUBLIC "-//W3C//DTD SVG 1.1//EN" "http://www.w3.org/Graphics/SVG/1.1/DTD/svg11.dtd">
<!-- Creator: CorelDRAW X8 -->
<svg xmlns="http://www.w3.org/2000/svg" xml:space="preserve" width="0.488878in" height="0.488874in" version="1.1" style="shape-rendering:geometricPrecision; text-rendering:geometricPrecision; image-rendering:optimizeQuality; fill-rule:evenodd; clip-rule:evenodd"
viewBox="0 0 158 158"
 xmlns:xlink="http://www.w3.org/1999/xlink">
 <defs>
  <style type="text/css">
   <![CDATA[
    .str0 {stroke:#FEFEFE;stroke-width:7.57072;stroke-linecap:round;stroke-linejoin:round}
    .fil1 {fill:none}
    .fil3 {fill:#FEFEFE}
    .fil0 {fill:#146EC9}
    .fil2 {fill:#FEFEFE}
   ]]>
  </style>
 </defs>
 <g id="Layer_x0020_1">
  <metadata id="CorelCorpID_0Corel-Layer"/>
  <rect class="fil0" width="158" height="158" rx="28" ry="32"/>
  <g id="_1878471485296">
   <g>
    <path class="fil1 str0" d="M99 61c4,1 9,-1 16,3 8,6 10,19 3,27 -2,1 -3,3 -6,4 -3,1 -6,1 -5,4 2,1 5,-1 7,-2 13,-7 15,-25 3,-34 -5,-4 -9,-5 -16,-5 -5,-20 -32,-31 -51,-16 -17,13 -16,40 2,52 1,1 3,2 4,2 1,-1 0,-3 -1,-3 -14,-9 -19,-27 -10,-41 4,-6 10,-11 17,-13 11,-3 23,1 30,9 6,7 5,11 7,13z"/>
    <path id="1" class="fil2" d="M99 61c4,1 9,-1 16,3 8,6 10,19 3,27 -2,1 -3,3 -6,4 -3,1 -6,1 -5,4 2,1 5,-1 7,-2 13,-7 15,-25 3,-34 -5,-4 -9,-5 -16,-5 -5,-20 -32,-31 -51,-16 -17,13 -16,40 2,52 1,1 3,2 4,2 1,-1 0,-3 -1,-3 -14,-9 -19,-27 -10,-41 4,-6 10,-11 17,-13 11,-3 23,1 30,9 6,7 5,11 7,13z"/>
   </g>
   <g>
    <path class="fil1 str0" d="M90 100l-11 16c-1,1 -4,5 -3,6 2,2 3,0 4,-1 0,-2 1,-3 2,-4l11 -16c1,-2 1,-2 1,-4 -5,-1 -16,0 -21,0 1,-3 3,-6 4,-8l8 -11c1,-1 3,-4 0,-4 -1,0 -5,6 -6,7 -3,5 -6,10 -10,15 -3,5 2,4 8,4 4,0 9,0 13,0z"/>
    <path id="1" class="fil3" d="M90 100l-11 16c-1,1 -4,5 -3,6 2,2 3,0 4,-1 0,-2 1,-3 2,-4l11 -16c1,-2 1,-2 1,-4 -5,-1 -16,0 -21,0 1,-3 3,-6 4,-8l8 -11c1,-1 3,-4 0,-4 -1,0 -5,6 -6,7 -3,5 -6,10 -10,15 -3,5 2,4 8,4 4,0 9,0 13,0z"/>
   </g>
  </g>
 </g>
</svg>
