<?xml version="1.0" encoding="UTF-8"?>
<!DOCTYPE svg PUBLIC "-//W3C//DTD SVG 1.1//EN" "http://www.w3.org/Graphics/SVG/1.1/DTD/svg11.dtd">
<!-- Creator: CorelDRAW X8 -->
<svg xmlns="http://www.w3.org/2000/svg" xml:space="preserve" width="0.438071in" height="0.440799in" version="1.1" style="shape-rendering:geometricPrecision; text-rendering:geometricPrecision; image-rendering:optimizeQuality; fill-rule:evenodd; clip-rule:evenodd"
viewBox="0 0 28 28"
 xmlns:xlink="http://www.w3.org/1999/xlink">
 <defs>
  <style type="text/css">
   <![CDATA[
    .str0 {stroke:#146EC9;stroke-width:2.20706;stroke-linecap:round;stroke-linejoin:round}
    .fil0 {fill:none}
    .fil1 {fill:#146EC9}
   ]]>
  </style>
 </defs>
 <g id="Layer_x0020_1">
  <metadata id="CorelCorpID_0Corel-Layer"/>
  <g id="_1878478901104">
   <g>
    <path class="fil0 str0" d="M19 9c1,0 3,-1 4,1 3,1 3,5 1,7 0,1 -1,1 -1,2 -1,0 -2,0 -2,1 1,0 2,-1 2,-1 4,-2 5,-7 1,-10 -1,-1 -2,-1 -5,-1 -1,-6 -9,-9 -14,-5 -5,4 -5,12 0,15 1,1 1,1 1,1 1,0 0,-1 0,-1 -4,-3 -5,-8 -3,-12 1,-2 3,-3 5,-4 3,-1 7,0 9,3 2,2 1,3 2,4z"/>
    <path id="1" class="fil1" d="M19 9c1,0 3,-1 4,1 3,1 3,5 1,7 0,1 -1,1 -1,2 -1,0 -2,0 -2,1 1,0 2,-1 2,-1 4,-2 5,-7 1,-10 -1,-1 -2,-1 -5,-1 -1,-6 -9,-9 -14,-5 -5,4 -5,12 0,15 1,1 1,1 1,1 1,0 0,-1 0,-1 -4,-3 -5,-8 -3,-12 1,-2 3,-3 5,-4 3,-1 7,0 9,3 2,2 1,3 2,4z"/>
   </g>
   <g>
    <path class="fil0 str0" d="M16 20l-3 5c0,0 -1,1 -1,1 1,1 1,0 1,0 0,0 1,-1 1,-1l3 -5c0,0 1,0 0,-1 -1,0 -4,0 -6,0 1,-1 1,-1 2,-2l2 -3c0,-1 1,-2 0,-2 -1,0 -2,2 -2,2 -1,2 -2,3 -3,5 -1,1 1,1 3,1 1,0 2,0 3,0z"/>
    <path id="1" class="fil1" d="M16 20l-3 5c0,0 -1,1 -1,1 1,1 1,0 1,0 0,0 1,-1 1,-1l3 -5c0,0 1,0 0,-1 -1,0 -4,0 -6,0 1,-1 1,-1 2,-2l2 -3c0,-1 1,-2 0,-2 -1,0 -2,2 -2,2 -1,2 -2,3 -3,5 -1,1 1,1 3,1 1,0 2,0 3,0z"/>
   </g>
  </g>
 </g>
</svg>
